<?xml version="1.0" encoding="utf-8"?>
<!-- Generator: Adobe Illustrator 23.0.1, SVG Export Plug-In . SVG Version: 6.00 Build 0)  -->
<svg version="1.1" id="Layer_1" xmlns="http://www.w3.org/2000/svg" xmlns:xlink="http://www.w3.org/1999/xlink" x="0px" y="0px"
	 viewBox="0 0 1024 1024" style="enable-background:new 0 0 1024 1024;" xml:space="preserve">
<style type="text/css">
	.st0{opacity:0.9;}
	.st1{fill:	#009849;}
</style>
<g class="st0">
	<path class="st1" d="M415.65,515.17H250.78c-16.57,0-30-13.43-30-30s13.43-30,30-30h164.87c16.57,0,30,13.43,30,30
		S432.22,515.17,415.65,515.17z"/>
</g>
<g class="st0">
	<path class="st1" d="M261.02,665.17H96.15c-16.57,0-30-13.43-30-30s13.43-30,30-30h164.87c16.57,0,30,13.43,30,30
		S277.59,665.17,261.02,665.17z"/>
</g>
<g class="st0">
	<path class="st1" d="M521.22,1023.44c-6.73,0-13.3-2.26-18.64-6.49c-6.45-5.12-10.52-12.66-11.25-20.87
		c-3.43-38.79,6.53-78.02,28.03-110.48c21.51-32.46,53.76-56.93,90.81-68.89l118.44-38.25L591.77,555.21
		c-7.64-12.46-5.19-28.6,5.79-38.23l298.84-262.1c23.65-20.74,37.24-49.48,38.27-80.93c1.03-31.44-10.66-61.01-32.9-83.26
		l-18.01-18.01l-760.38,738.8c-21.78,21.16-33.89,49.54-34.11,79.9c-0.15,20.92,5.36,40.98,15.82,58.45l401.15-352.77
		c12.44-10.94,31.4-9.72,42.34,2.72c10.94,12.44,9.72,31.4-2.72,42.34l-424.83,373.59c-11.86,10.43-29.78,9.88-40.97-1.26l-0.21-0.2
		c-32.97-32.97-50.92-76.74-50.58-123.3c0.34-46.55,18.91-90.06,52.3-122.5L863.16,9.04c11.76-11.43,30.52-11.29,42.12,0.3
		l38.92,38.92c17.2,17.2,30.32,37.34,39,59.85c8.35,21.67,12.2,44.48,11.44,67.79s-6.09,45.82-15.85,66.9
		c-10.13,21.9-24.54,41.13-42.83,57.18L656.14,545.41l143.57,234.2c4.81,7.84,5.75,17.46,2.56,26.08
		c-3.19,8.63-10.16,15.32-18.92,18.14L628.62,873.8c-24.17,7.81-45.2,23.76-59.23,44.93c-8.04,12.13-13.6,25.72-16.47,39.87
		l259.79-37.14c35.23-5.04,65.32-25.79,82.55-56.94c17.23-31.14,18.81-67.66,4.36-100.18L794.71,528.36
		c-6.73-15.14,0.09-32.87,15.23-39.6c15.14-6.73,32.87,0.09,39.6,15.23l104.91,235.98c22.17,49.86,19.73,105.85-6.68,153.6
		s-72.54,79.57-126.56,87.29l-295.73,42.28C524.05,1023.34,522.63,1023.44,521.22,1023.44z"/>
</g>
</svg>
